<svg width="32" height="32" viewBox="0 0 32 32" fill="none" xmlns="http://www.w3.org/2000/svg">
<path d="M0.875 5C0.875 3.90598 1.3096 2.85677 2.08318 2.08318C2.85677 1.3096 3.90598 0.875 5 0.875H9.125C10.219 0.875 11.2682 1.3096 12.0418 2.08318C12.8154 2.85677 13.25 3.90598 13.25 5V9.125C13.25 10.219 12.8154 11.2682 12.0418 12.0418C11.2682 12.8154 10.219 13.25 9.125 13.25H5C3.90598 13.25 2.85677 12.8154 2.08318 12.0418C1.3096 11.2682 0.875 10.219 0.875 9.125V5ZM0.875 22.875C0.875 21.781 1.3096 20.7318 2.08318 19.9582C2.85677 19.1846 3.90598 18.75 5 18.75H9.125C10.219 18.75 11.2682 19.1846 12.0418 19.9582C12.8154 20.7318 13.25 21.781 13.25 22.875V27C13.25 28.094 12.8154 29.1432 12.0418 29.9168C11.2682 30.6904 10.219 31.125 9.125 31.125H5C3.90598 31.125 2.85677 30.6904 2.08318 29.9168C1.3096 29.1432 0.875 28.094 0.875 27V22.875ZM18.75 5C18.75 3.90598 19.1846 2.85677 19.9582 2.08318C20.7318 1.3096 21.781 0.875 22.875 0.875H27C28.094 0.875 29.1432 1.3096 29.9168 2.08318C30.6904 2.85677 31.125 3.90598 31.125 5V9.125C31.125 10.219 30.6904 11.2682 29.9168 12.0418C29.1432 12.8154 28.094 13.25 27 13.25H22.875C21.781 13.25 20.7318 12.8154 19.9582 12.0418C19.1846 11.2682 18.75 10.219 18.75 9.125V5ZM18.75 22.875C18.75 21.781 19.1846 20.7318 19.9582 19.9582C20.7318 19.1846 21.781 18.75 22.875 18.75H27C28.094 18.75 29.1432 19.1846 29.9168 19.9582C30.6904 20.7318 31.125 21.781 31.125 22.875V27C31.125 28.094 30.6904 29.1432 29.9168 29.9168C29.1432 30.6904 28.094 31.125 27 31.125H22.875C21.781 31.125 20.7318 30.6904 19.9582 29.9168C19.1846 29.1432 18.75 28.094 18.75 27V22.875Z" stroke="white" stroke-width="1.5" stroke-linecap="round" stroke-linejoin="round"/>
</svg>
